<?xml version="1.0" encoding="UTF-8"?>
<svg xmlns="http://www.w3.org/2000/svg" xmlns:xlink="http://www.w3.org/1999/xlink" xmlns:svgjs="http://svgjs.com/svgjs" version="1.1" width="512" height="512" x="0" y="0" viewBox="0 0 74 74" style="enable-background:new 0 0 512 512" xml:space="preserve" class="">
  <g>
    <path xmlns="http://www.w3.org/2000/svg" d="m37.549 7.34a.993.993 0 0 1 -.549-.164 21.673 21.673 0 0 0 -2.5-1.4 1 1 0 1 1 .861-1.8 23.452 23.452 0 0 1 2.739 1.524 1 1 0 0 1 -.549 1.837z" fill="#25258e" data-original="#000000" style="" class=""/>
    <path xmlns="http://www.w3.org/2000/svg" d="m25.18 48.717a23.533 23.533 0 0 1 -16.637-40.174 23.414 23.414 0 0 1 9.373-5.735 1.022 1.022 0 0 1 1.309.952 1 1 0 0 1 -.765.973 21.524 21.524 0 1 0 23.827 7.376 1 1 0 0 1 1.586-1.218 23.538 23.538 0 0 1 -18.693 37.826z" fill="#25258e" data-original="#000000" style="" class=""/>
    <path xmlns="http://www.w3.org/2000/svg" d="m28.211 3.86a.938.938 0 0 1 -.139-.01 20.974 20.974 0 0 0 -2.892-.2 1 1 0 0 1 0-2 22.933 22.933 0 0 1 3.168.22 1 1 0 0 1 -.137 1.99z" fill="#25258e" data-original="#000000" style="" class=""/>
    <path xmlns="http://www.w3.org/2000/svg" d="m45.355 46.355a1 1 0 0 1 -.707-.293l-4.24-4.24a1 1 0 0 1 1.414-1.414l4.24 4.24a1 1 0 0 1 -.707 1.707z" fill="#25258e" data-original="#000000" style="" class=""/>
    <path xmlns="http://www.w3.org/2000/svg" d="m65 72.354a7.3 7.3 0 0 1 -5.2-2.154l-19.643-19.647a1 1 0 0 1 0-1.414l8.982-8.982a1 1 0 0 1 1.414 0l19.647 19.648a7.352 7.352 0 0 1 -5.2 12.549zm-22.722-22.508 18.941 18.94a5.351 5.351 0 1 0 7.567-7.567l-18.94-18.941z" fill="#25258e" data-original="#000000" style="" class=""/>
    <path xmlns="http://www.w3.org/2000/svg" d="m45.94 55.922a1 1 0 0 1 -.707-1.707l8.982-8.982a1 1 0 0 1 1.414 1.414l-8.982 8.982a1 1 0 0 1 -.707.293z" fill="#25258e" data-original="#000000" style="" class=""/>
    <path xmlns="http://www.w3.org/2000/svg" d="m25.181 33.809a23.344 23.344 0 0 1 -17.411-7.957 1 1 0 0 1 0-1.342 23.341 23.341 0 0 1 17.411-7.957 23.34 23.34 0 0 1 17.411 7.957 1 1 0 0 1 0 1.342 23.346 23.346 0 0 1 -17.411 7.957zm-15.3-8.628a20.969 20.969 0 0 0 30.6 0 20.969 20.969 0 0 0 -30.6 0z" fill="#25258e" data-original="#000000" style="" class=""/>
    <path xmlns="http://www.w3.org/2000/svg" d="m25.181 33.8a8.622 8.622 0 1 1 8.619-8.619 8.631 8.631 0 0 1 -8.619 8.619zm0-15.243a6.622 6.622 0 1 0 6.619 6.624 6.629 6.629 0 0 0 -6.619-6.622z" fill="#25258e" data-original="#000000" style="" class=""/>
    <path xmlns="http://www.w3.org/2000/svg" d="m25.177 29.656a4.474 4.474 0 0 1 0-8.948 2.263 2.263 0 0 1 .49.042 1 1 0 0 1 .783.9 2.47 2.47 0 0 0 2.261 2.262 1.009 1.009 0 0 1 .928.881 3.469 3.469 0 0 1 .017.381 4.485 4.485 0 0 1 -4.479 4.482zm-.536-6.884a2.472 2.472 0 1 0 2.959 2.939 4.5 4.5 0 0 1 -2.959-2.939z" fill="#25258e" data-original="#000000" style="" class=""/>
  </g>
</svg>
