<?xml version="1.0" encoding="UTF-8"?>
<svg xmlns="http://www.w3.org/2000/svg" xmlns:xlink="http://www.w3.org/1999/xlink" xmlns:svgjs="http://svgjs.com/svgjs" version="1.1" width="512" height="512" x="0" y="0" viewBox="0 0 74 74" style="enable-background:new 0 0 512 512" xml:space="preserve" class="">
  <g>
    <path xmlns="http://www.w3.org/2000/svg" d="m58.261 11.53a1 1 0 0 1 -.8-.4 16.2 16.2 0 0 0 -1.931-2.165 1 1 0 0 1 1.363-1.465 18.3 18.3 0 0 1 2.169 2.434 1 1 0 0 1 -.8 1.6z" fill="#25258e" data-original="#000000" style=""/>
    <path xmlns="http://www.w3.org/2000/svg" d="m61.69 42.68h-49.38a10.305 10.305 0 1 1 0-20.61h.09a13.479 13.479 0 0 1 16.175-11.032 18.509 18.509 0 0 1 9.664-7.615 1 1 0 0 1 .642 1.894 16.524 16.524 0 0 0 -8.966 7.366 1 1 0 0 1 -1.123.463 11.767 11.767 0 0 0 -3.022-.416 11.5 11.5 0 0 0 -11.495 10.436 1 1 0 0 1 -1 .9h-.97a8.305 8.305 0 1 0 0 16.61h49.385a8.305 8.305 0 1 0 0-16.61h-.14a1 1 0 0 1 -.994-1.114 17.306 17.306 0 0 0 .134-2.016 15.591 15.591 0 0 0 -.178-2.407 1 1 0 1 1 1.976-.306 17.55 17.55 0 0 1 .2 2.713c0 .373-.014.754-.044 1.174a10.3 10.3 0 0 1 -.954 20.57z" fill="#25258e" data-original="#000000" style=""/>
    <path xmlns="http://www.w3.org/2000/svg" d="m50.27 5.521a1 1 0 0 1 -.346-.063 15.208 15.208 0 0 0 -2.769-.742 1 1 0 1 1 .329-1.972 17.269 17.269 0 0 1 3.132.838 1 1 0 0 1 -.346 1.939z" fill="#25258e" data-original="#000000" style=""/>
    <path xmlns="http://www.w3.org/2000/svg" d="m37 63.722a1 1 0 0 1 -1-1v-21.038a1 1 0 0 1 2 0v21.038a1 1 0 0 1 -1 1z" fill="#25258e" data-original="#000000" style=""/>
    <path xmlns="http://www.w3.org/2000/svg" d="m37 71.563a4.921 4.921 0 1 1 4.92-4.92 4.926 4.926 0 0 1 -4.92 4.92zm0-7.841a2.921 2.921 0 1 0 2.92 2.921 2.924 2.924 0 0 0 -2.92-2.921z" fill="#25258e" data-original="#000000" style=""/>
    <path xmlns="http://www.w3.org/2000/svg" d="m62.158 61.068a4.783 4.783 0 1 1 4.783-4.783 4.788 4.788 0 0 1 -4.783 4.783zm0-7.566a2.783 2.783 0 1 0 2.783 2.783 2.786 2.786 0 0 0 -2.783-2.785z" fill="#25258e" data-original="#000000" style=""/>
    <path xmlns="http://www.w3.org/2000/svg" d="m58.375 57.285h-10.175a1 1 0 0 1 -1-1v-14.6a1 1 0 0 1 2 0v13.6h9.171a1 1 0 0 1 0 2z" fill="#25258e" data-original="#000000" style=""/>
    <path xmlns="http://www.w3.org/2000/svg" d="m11.842 61.068a4.783 4.783 0 1 1 4.783-4.783 4.788 4.788 0 0 1 -4.783 4.783zm0-7.566a2.783 2.783 0 1 0 2.783 2.783 2.787 2.787 0 0 0 -2.783-2.785z" fill="#25258e" data-original="#000000" style=""/>
    <path xmlns="http://www.w3.org/2000/svg" d="m25.8 57.285h-10.175a1 1 0 0 1 0-2h9.175v-13.6a1 1 0 0 1 2 0v14.6a1 1 0 0 1 -1 1z" fill="#25258e" data-original="#000000" style=""/>
  </g>
</svg>
