<?xml version="1.0" encoding="UTF-8"?>
<svg xmlns="http://www.w3.org/2000/svg" xmlns:xlink="http://www.w3.org/1999/xlink" xmlns:svgjs="http://svgjs.com/svgjs" version="1.1" width="512" height="512" x="0" y="0" viewBox="0 0 74 74" style="enable-background:new 0 0 512 512" xml:space="preserve" class="">
  <g>
    <path xmlns="http://www.w3.org/2000/svg" d="m4.6 38.44a1 1 0 0 1 -1-1v-2.97a1 1 0 0 1 2 0v2.97a1 1 0 0 1 -1 1z" fill="#25258e" data-original="#000000" style="" class=""/>
    <path xmlns="http://www.w3.org/2000/svg" d="m12.95 72a9.348 9.348 0 0 1 -9.35-9.35v-18.21a1 1 0 0 1 2 0v18.21a7.35 7.35 0 0 0 14.7 0v-2.39a1 1 0 0 1 2 0v2.39a9.361 9.361 0 0 1 -9.35 9.35z" fill="#25258e" data-original="#000000" style="" class=""/>
    <path xmlns="http://www.w3.org/2000/svg" d="m58.67 61.26a1 1 0 0 1 -1-1v-56.26h-52.07v13.56a1 1 0 0 1 -2 0v-14.56a1 1 0 0 1 1-1h54.07a1 1 0 0 1 1 1v57.26a1 1 0 0 1 -1 1z" fill="#25258e" data-original="#000000" style="" class=""/>
    <path xmlns="http://www.w3.org/2000/svg" d="m4.6 28.47a1 1 0 0 1 -1-1v-2.91a1 1 0 0 1 2 0v2.91a1 1 0 0 1 -1 1z" fill="#25258e" data-original="#000000" style="" class=""/>
    <path xmlns="http://www.w3.org/2000/svg" d="m59.263 72h-46.316a1 1 0 0 1 0-2h46.316a9.152 9.152 0 0 0 9.137-8.737h-47.1a1 1 0 1 1 0-2h48.1a1 1 0 0 1 1 1v.6a11.153 11.153 0 0 1 -11.137 11.137z" fill="#25258e" data-original="#000000" style="" class=""/>
    <path xmlns="http://www.w3.org/2000/svg" d="m21.781 20.433h-9.242a1 1 0 0 1 -1-1v-9.243a1 1 0 0 1 1-1h9.242a1 1 0 0 1 1 1v9.243a1 1 0 0 1 -1 1zm-8.242-2h7.242v-7.243h-7.242z" fill="#25258e" data-original="#000000" style="" class=""/>
    <path xmlns="http://www.w3.org/2000/svg" d="m21.781 35.851h-9.242a1 1 0 0 1 -1-1v-9.243a1 1 0 0 1 1-1h9.242a1 1 0 0 1 1 1v9.243a1 1 0 0 1 -1 1zm-8.242-2h7.242v-7.243h-7.242z" fill="#25258e" data-original="#000000" style="" class=""/>
    <path xmlns="http://www.w3.org/2000/svg" d="m21.781 51.268h-9.242a1 1 0 0 1 -1-1v-9.243a1 1 0 0 1 1-1h9.242a1 1 0 0 1 1 1v9.243a1 1 0 0 1 -1 1zm-8.242-2h7.242v-7.243h-7.242z" fill="#25258e" data-original="#000000" style="" class=""/>
    <path xmlns="http://www.w3.org/2000/svg" d="m51 13.026h-22.864a1 1 0 0 1 0-2h22.864a1 1 0 0 1 0 2z" fill="#25258e" data-original="#000000" style="" class=""/>
    <path xmlns="http://www.w3.org/2000/svg" d="m43 19.144h-14.864a1 1 0 0 1 0-2h14.864a1 1 0 0 1 0 2z" fill="#25258e" data-original="#000000" style="" class=""/>
    <path xmlns="http://www.w3.org/2000/svg" d="m51 28.443h-22.864a1 1 0 0 1 0-2h22.864a1 1 0 0 1 0 2z" fill="#25258e" data-original="#000000" style="" class=""/>
    <path xmlns="http://www.w3.org/2000/svg" d="m43 34.562h-14.864a1 1 0 1 1 0-2h14.864a1 1 0 0 1 0 2z" fill="#25258e" data-original="#000000" style="" class=""/>
    <path xmlns="http://www.w3.org/2000/svg" d="m51 43.861h-22.864a1 1 0 0 1 0-2h22.864a1 1 0 0 1 0 2z" fill="#25258e" data-original="#000000" style="" class=""/>
    <path xmlns="http://www.w3.org/2000/svg" d="m43 49.979h-14.864a1 1 0 1 1 0-2h14.864a1 1 0 0 1 0 2z" fill="#25258e" data-original="#000000" style="" class=""/>
  </g>
</svg>
