<?xml version="1.0"?>
<svg xmlns="http://www.w3.org/2000/svg" xmlns:xlink="http://www.w3.org/1999/xlink" xmlns:svgjs="http://svgjs.com/svgjs" version="1.1" width="512" height="512" x="0" y="0" viewBox="0 0 74 74" style="enable-background:new 0 0 512 512" xml:space="preserve" class=""><g><path xmlns="http://www.w3.org/2000/svg" d="M71,72H57.26a1,1,0,1,1,0-2H70V30a1,1,0,0,1,2,0V71A1,1,0,0,1,71,72Z" fill="#25258e" data-original="#000000" style=""/><path xmlns="http://www.w3.org/2000/svg" d="M40.29,72H37.38a1,1,0,1,1,0-2h2.91a1,1,0,0,1,0,2Z" fill="#25258e" data-original="#000000" style=""/><path xmlns="http://www.w3.org/2000/svg" d="M30.38,72H3a1,1,0,0,1-1-1V30a1,1,0,0,1,2,0V70H30.38a1,1,0,0,1,0,2Z" fill="#25258e" data-original="#000000" style=""/><path xmlns="http://www.w3.org/2000/svg" d="M50.26,72H47.29a1,1,0,1,1,0-2h2.97a1,1,0,0,1,0,2Z" fill="#25258e" data-original="#000000" style=""/><path xmlns="http://www.w3.org/2000/svg" d="M3,31a1,1,0,0,1-.623-1.783l10.5-8.34a1,1,0,0,1,1.244,1.566l-10.5,8.34A1,1,0,0,1,3,31Z" fill="#25258e" data-original="#000000" style=""/><path xmlns="http://www.w3.org/2000/svg" d="M71,31a1,1,0,0,1-.621-.217l-10.5-8.34a1,1,0,0,1,1.244-1.566l10.5,8.34A1,1,0,0,1,71,31Z" fill="#25258e" data-original="#000000" style=""/><path xmlns="http://www.w3.org/2000/svg" d="M48.759,13.34a.993.993,0,0,1-.621-.217L37,4.277,25.862,13.123a1,1,0,1,1-1.244-1.566l11.76-9.34a1,1,0,0,1,1.244,0l11.76,9.34a1,1,0,0,1-.623,1.783Z" fill="#25258e" data-original="#000000" style=""/><path xmlns="http://www.w3.org/2000/svg" d="M37,58a1,1,0,0,1-.622-.217l-34-27a1,1,0,0,1,1.244-1.566L37,55.723,70.378,29.217a1,1,0,0,1,1.244,1.566l-34,27A1,1,0,0,1,37,58Z" fill="#25258e" data-original="#000000" style=""/><path xmlns="http://www.w3.org/2000/svg" d="M50.26,72H47.29a1,1,0,1,1,0-2h2.97a1,1,0,0,1,0,2Z" fill="#25258e" data-original="#000000" style=""/><path xmlns="http://www.w3.org/2000/svg" d="M30.38,72H3a1,1,0,0,1-.674-1.739l24.03-21.91A1,1,0,1,1,27.7,49.829L5.581,70h24.8a1,1,0,0,1,0,2Z" fill="#25258e" data-original="#000000" style=""/><path xmlns="http://www.w3.org/2000/svg" d="M40.29,72H37.38a1,1,0,1,1,0-2h2.91a1,1,0,0,1,0,2Z" fill="#25258e" data-original="#000000" style=""/><path xmlns="http://www.w3.org/2000/svg" d="M71,72H57.26a1,1,0,1,1,0-2H68.419L46.3,49.829a1,1,0,1,1,1.348-1.478l24.03,21.91A1,1,0,0,1,71,72Z" fill="#25258e" data-original="#000000" style=""/><path xmlns="http://www.w3.org/2000/svg" d="M60.5,39.34a1,1,0,0,1-1-1v-25h-45v25a1,1,0,0,1-2,0v-26a1,1,0,0,1,1-1h47a1,1,0,0,1,1,1v26A1,1,0,0,1,60.5,39.34Z" fill="#25258e" data-original="#000000" style=""/><path xmlns="http://www.w3.org/2000/svg" d="M52.5,21.5h-31a1,1,0,0,1,0-2h31a1,1,0,0,1,0,2Z" fill="#25258e" data-original="#000000" style=""/><path xmlns="http://www.w3.org/2000/svg" d="M52.5,29.17h-31a1,1,0,0,1,0-2h31a1,1,0,0,1,0,2Z" fill="#25258e" data-original="#000000" style=""/><path xmlns="http://www.w3.org/2000/svg" d="M52.5,36.84h-31a1,1,0,0,1,0-2h31a1,1,0,0,1,0,2Z" fill="#25258e" data-original="#000000" style=""/></g></svg>
